<?xml version="1.0" encoding="utf-8"?>
<!-- Generator: Adobe Illustrator 19.0.0, SVG Export Plug-In . SVG Version: 6.00 Build 0)  -->
<svg version="1.1" id="leave_it" xmlns="http://www.w3.org/2000/svg" xmlns:xlink="http://www.w3.org/1999/xlink" x="0px" y="0px"
	 viewBox="0 0 78.4 83.7" enable-background="new 0 0 78.4 83.7" xml:space="preserve">
<g id="XMLID_70_">
	<path id="XMLID_69_" fill="#676767" d="M36.5,35.5c-0.4,0,1.2-8.1,2.6-14.9c-3.7-4-9-8.9-14.2-8.8C14.8,12.1,7.2,20.1,7.4,30.1
		C7.7,42.5,19,52.2,36.3,66.7l4.7,4.4l2.5-2.7l4.3-26.6C47.8,41.9,37.2,35.5,36.5,35.5z"/>
	<path id="XMLID_67_" fill="#333333" d="M35.1,37c0.8-0.1,11.4,6.3,11.4,6.3l-4.1,26.6l1.9-2C60.7,52.4,71.4,42,71,29.7
		c-0.3-10.1-8.4-17.6-18.4-17.3c-5.5,0.2-10.8,6-14.3,10.3"/>
</g>
</svg>
