<?xml version="1.0" encoding="utf-8"?>
<!-- Generator: Adobe Illustrator 19.0.0, SVG Export Plug-In . SVG Version: 6.00 Build 0)  -->
<svg version="1.1" id="neutral" xmlns="http://www.w3.org/2000/svg" xmlns:xlink="http://www.w3.org/1999/xlink" x="0px" y="0px"
	 viewBox="0 0 78.4 83.7" enable-background="new 0 0 78.4 83.7" xml:space="preserve">
<g id="favorite-outline">
	<path id="XMLID_73_" fill="#676767" d="M53.8,12.8c-5.4,0-10.9,2.6-14.4,6.7c-3.5-4.2-8.9-6.7-14.4-6.7c-9.9,0-17.6,7.7-17.6,17.6
		c0,12.1,10.9,22,27.5,36.7l4.5,4.2l4.5-4.2c16.3-15,27.5-24.9,27.5-36.7C71.3,20.4,63.7,12.8,53.8,12.8z M39.7,62.6h-0.3l-0.3-0.3
		C23.8,48.5,13.9,39.6,13.9,30.3c0-6.4,4.8-11.2,11.2-11.2c4.8,0,9.6,3.2,11.5,7.7h6.1c1.6-4.5,6.4-7.7,11.2-7.7
		C60.2,19.2,65,24,65,30.3C65,39.6,55.1,48.5,39.7,62.6z"/>
</g>
</svg>
