<?xml version="1.0" encoding="utf-8"?>
<!-- Generator: Adobe Illustrator 19.1.0, SVG Export Plug-In . SVG Version: 6.00 Build 0)  -->
<svg version="1.1" id="Layer_1" xmlns="http://www.w3.org/2000/svg" xmlns:xlink="http://www.w3.org/1999/xlink" x="0px" y="0px"
	 viewBox="-383 295 24 24" style="enable-background:new -383 295 24 24;" xml:space="preserve">
<style type="text/css">
	.st0{fill:#FFFFFF;}
</style>
<g id="keyboard-arrow-right">
	<g>
		<polygon class="st0" points="-375.1,311.3 -370.5,306.8 -375.1,302.2 -373,300.1 -366.3,306.8 -373,313.5 		"/>
		<path d="M-373,300.8l6,6l-6,6l-1.4-1.5l4.6-4.5l-4.6-4.6L-373,300.8 M-373,299.4l-0.7,0.7l-1.4,1.4l-0.7,0.7l0.7,0.7l3.9,3.9
			l-3.9,3.8l-0.7,0.7l0.7,0.7l1.4,1.5l0.7,0.8l0.7-0.7l6-6l0.7-0.7l-0.7-0.7l-6-6L-373,299.4L-373,299.4z"/>
	</g>
</g>
</svg>
