<?xml version="1.0" encoding="utf-8"?>
<!-- Generator: Adobe Illustrator 19.1.0, SVG Export Plug-In . SVG Version: 6.00 Build 0)  -->
<svg version="1.1" id="love_it" xmlns="http://www.w3.org/2000/svg" xmlns:xlink="http://www.w3.org/1999/xlink" x="0px" y="0px"
	 viewBox="-356 265.3 78.4 83.7" style="enable-background:new -356 265.3 78.4 83.7;" xml:space="preserve">
<style type="text/css">
	.st0{fill:#999999;}
</style>
<g id="favorite">
	<path class="st0" d="M-316.6,339.1l-2.1-2.1c-0.8-0.8-0.8-2,0-2.8c0.8-0.8,2-0.8,2.8,0l0,0c0.3,0.1,0.6,0.3,0.9,0.5
		c0.8,0.8,0.8,2.1,0,2.8L-316.6,339.1z M-309.1,331.3c-0.6,0-1.1-0.2-1.5-0.7c-0.7-0.8-0.7-2.1,0.2-2.8l0.7-0.7
		c0.8-0.7,2.1-0.7,2.8,0.2c0.7,0.8,0.7,2.1-0.2,2.8l-0.8,0.7C-308.2,331.1-308.7,331.3-309.1,331.3z M-324.6,330.7
		c-0.5,0-0.9-0.2-1.3-0.5l-0.8-0.7c-0.8-0.7-0.9-2-0.2-2.8c0.7-0.8,2-0.9,2.8-0.2l0.7,0.7c0.8,0.7,0.9,2,0.2,2.8
		C-323.5,330.5-324,330.7-324.6,330.7z M-301,323.9c-0.5,0-1.1-0.2-1.5-0.6c-0.8-0.8-0.7-2.1,0.1-2.8l0.7-0.7
		c0.8-0.8,2.1-0.7,2.8,0.1s0.7,2.1-0.1,2.8l-0.7,0.7C-300,323.7-300.5,323.9-301,323.9z M-332.7,323.3c-0.5,0-1-0.2-1.4-0.6
		l-0.7-0.7c-0.8-0.8-0.8-2-0.1-2.8c0.8-0.8,2-0.8,2.8-0.1l0.7,0.7c0.8,0.8,0.8,2,0.1,2.8C-331.6,323.1-332.2,323.3-332.7,323.3z
		 M-293.3,316c-0.5,0-0.9-0.2-1.3-0.5c-0.8-0.7-0.9-2-0.2-2.8c0.2-0.2,0.4-0.5,0.6-0.7c0.7-0.8,2-0.9,2.8-0.2s0.9,2,0.2,2.8
		c-0.2,0.3-0.4,0.5-0.7,0.8C-292.2,315.7-292.8,316-293.3,316z M-340.3,315.4c-0.6,0-1.1-0.2-1.5-0.7c-0.2-0.3-0.4-0.5-0.7-0.8
		c-0.7-0.9-0.6-2.1,0.3-2.8c0.8-0.7,2.1-0.6,2.8,0.3c0.2,0.2,0.4,0.5,0.6,0.7c0.7,0.8,0.6,2.1-0.2,2.8
		C-339.4,315.2-339.9,315.4-340.3,315.4z M-287.1,307c-0.3,0-0.6-0.1-0.9-0.2c-1-0.5-1.4-1.7-0.9-2.7c0.1-0.3,0.3-0.6,0.4-0.8
		c0.5-1,1.6-1.5,2.6-1c1,0.5,1.5,1.6,1,2.6c-0.1,0.3-0.3,0.6-0.5,1C-285.6,306.6-286.3,307-287.1,307z M-346.4,306.3
		c-0.8,0-1.5-0.4-1.8-1.2c-0.2-0.3-0.3-0.7-0.4-1c-0.4-1,0-2.2,1.1-2.6c1-0.4,2.2,0,2.6,1.1c0.1,0.3,0.2,0.6,0.4,0.8
		c0.5,1,0,2.2-1,2.7C-345.9,306.2-346.2,306.3-346.4,306.3z M-284.6,296.4c-1.1,0-2-0.9-2-1.9c0-0.3,0-0.6-0.1-0.9
		c-0.1-1.1,0.7-2.1,1.8-2.2c1.1-0.1,2.1,0.7,2.2,1.8c0,0.4,0.1,0.7,0.1,1.1C-282.6,295.4-283.4,296.4-284.6,296.4
		C-284.6,296.4-284.6,296.4-284.6,296.4z M-348.5,295.6c-0.1,0-0.1,0-0.2,0c-1.1-0.1-1.9-1-1.8-2.1c0-0.4,0.1-0.7,0.1-1.1
		c0.1-1.1,1.2-1.9,2.2-1.7c1.1,0.1,1.9,1.2,1.7,2.2c0,0.3-0.1,0.6-0.1,0.9C-346.6,294.8-347.5,295.6-348.5,295.6z M-316.6,290.3
		l-1.5-1.8c-0.7-0.8-0.6-2.1,0.2-2.9c0,0,0.1-0.1,0.1-0.1c0.1-0.1,0.2-0.2,0.3-0.3c0.7-0.8,2-0.9,2.8-0.2c0.8,0.7,0.9,2,0.2,2.8
		c-0.2,0.2-0.4,0.4-0.6,0.7L-316.6,290.3z M-288.3,286.2c-0.6,0-1.2-0.3-1.6-0.8c-0.2-0.2-0.4-0.5-0.6-0.7c-0.7-0.8-0.6-2.1,0.2-2.8
		c0.8-0.7,2.1-0.6,2.8,0.2c0.2,0.3,0.5,0.6,0.7,0.9c0.7,0.9,0.5,2.1-0.4,2.8C-287.4,286.1-287.8,286.2-288.3,286.2z M-344.5,285.6
		c-0.5,0-0.9-0.2-1.3-0.5c-0.8-0.7-0.9-2-0.2-2.8c0.2-0.3,0.5-0.6,0.7-0.8c0.8-0.8,2-0.8,2.8-0.1c0.8,0.8,0.8,2,0.1,2.8
		c-0.2,0.2-0.4,0.4-0.6,0.7C-343.3,285.4-343.9,285.6-344.5,285.6z M-323.9,282.2c-0.4,0-0.8-0.1-1.2-0.4c-0.2-0.2-0.5-0.3-0.8-0.5
		c-0.9-0.6-1.2-1.8-0.6-2.8c0.6-0.9,1.8-1.2,2.8-0.6c0.3,0.2,0.6,0.4,0.9,0.6c0.9,0.6,1.1,1.9,0.5,2.8
		C-322.6,281.9-323.3,282.2-323.9,282.2z M-308.7,281.8c-0.7,0-1.3-0.3-1.7-0.9c-0.6-0.9-0.3-2.2,0.6-2.8c0.3-0.2,0.6-0.4,0.9-0.6
		c1-0.6,2.2-0.2,2.7,0.7c0.6,1,0.2,2.2-0.7,2.7c-0.3,0.1-0.5,0.3-0.8,0.5C-307.9,281.7-308.3,281.8-308.7,281.8z M-297.2,280.2
		c-0.2,0-0.4,0-0.5-0.1c-0.3-0.1-0.6-0.2-0.9-0.2c-1.1-0.2-1.8-1.3-1.5-2.4c0.2-1.1,1.3-1.8,2.4-1.5c0.4,0.1,0.7,0.2,1.1,0.3
		c1.1,0.3,1.7,1.4,1.4,2.5C-295.6,279.6-296.4,280.2-297.2,280.2z M-335.2,280c-0.9,0-1.7-0.6-1.9-1.5c-0.3-1.1,0.4-2.2,1.5-2.4
		c0.4-0.1,0.7-0.2,1.1-0.2c1.1-0.2,2.1,0.5,2.3,1.6c0.2,1.1-0.5,2.1-1.6,2.3c-0.3,0.1-0.6,0.1-0.9,0.2
		C-334.9,280-335.1,280-335.2,280z"/>
</g>
</svg>
