<?xml version="1.0" encoding="utf-8"?>
<!-- Generator: Adobe Illustrator 19.1.0, SVG Export Plug-In . SVG Version: 6.00 Build 0)  -->
<svg version="1.1" id="Layer_1" xmlns="http://www.w3.org/2000/svg" xmlns:xlink="http://www.w3.org/1999/xlink" x="0px" y="0px"
	 viewBox="-383 295 24 24" style="enable-background:new -383 295 24 24;" xml:space="preserve">
<style type="text/css">
	.st0{fill:#FFFFFF;}
</style>
<g id="keyboard-arrow-left">
	<g>
		<polygon class="st0" points="-375.7,306.5 -369,299.8 -366.9,301.9 -371.5,306.5 -366.9,311.1 -369,313.2 		"/>
		<path d="M-369,300.5l1.4,1.4l-4.6,4.6l4.6,4.6l-1.4,1.4l-6-6L-369,300.5 M-369,299.1l-0.7,0.7l-6,6l-0.7,0.7l0.7,0.7l6,6l0.7,0.7
			l0.7-0.7l1.4-1.4l0.7-0.7l-0.7-0.7l-3.9-3.9l3.9-3.9l0.7-0.7l-0.7-0.7l-1.4-1.4L-369,299.1L-369,299.1z"/>
	</g>
</g>
</svg>
