<?xml version="1.0" encoding="utf-8"?>
<!-- Generator: Adobe Illustrator 19.0.0, SVG Export Plug-In . SVG Version: 6.00 Build 0)  -->
<svg version="1.1" id="hate_it" xmlns="http://www.w3.org/2000/svg" xmlns:xlink="http://www.w3.org/1999/xlink" x="0px" y="0px"
	 viewBox="0 0 78.4 83.7" enable-background="new 0 0 78.4 83.7" xml:space="preserve">
<path id="XMLID_72_" fill="#676767" d="M29.8,37.8c-0.4,0.1,0.6-8,1.6-14.8c-3.9-3.7-9.4-8.2-14.5-7.7C7,16.1,0.1,24.4,1,34.3
	c1.1,12.1,12.8,21,30.7,34.2l4.9,4.1l2.3-2.8l2.6-26.4C41.4,43.3,30.6,37.7,29.8,37.8z"/>
<path id="XMLID_71_" fill="#333333" d="M41.4,30.5c0.8,0,11,6.6,11,6.6l-4.9,26.1l1.9-1.9C66.1,46.6,77,36.6,77,24.5
	c0-9.9-7.7-17.6-17.6-17.6c-5.4,0-10.9,5.6-14.4,9.7"/>
</svg>
